<svg width="15" height="15" viewBox="0 0 15 15" fill="none" xmlns="http://www.w3.org/2000/svg">
<path fill-rule="evenodd" clip-rule="evenodd" d="M14.4682 7.30146C14.4682 7.77992 14.4195 8.25772 14.3239 8.72347C14.2306 9.17815 14.0924 9.62454 13.9114 10.0513C13.7345 10.4704 13.5151 10.8744 13.2588 11.2511C13.0062 11.6254 12.7153 11.9766 12.3958 12.2967C12.0755 12.6155 11.7231 12.9056 11.349 13.1592C10.971 13.4137 10.5665 13.6328 10.1471 13.8105C9.71975 13.9905 9.27233 14.1285 8.81804 14.2217C8.35168 14.3176 7.87214 14.3666 7.39298 14.3666C6.91347 14.3666 6.43395 14.3176 5.96825 14.2217C5.51327 14.1285 5.06588 13.9905 4.63887 13.8105C4.21947 13.6328 3.81456 13.4137 3.43662 13.1592C3.06247 12.9056 2.71009 12.6155 2.39053 12.2967C2.07063 11.9766 1.77972 11.6254 1.52684 11.2511C1.27188 10.8744 1.05214 10.4704 0.874581 10.0513C0.693531 9.62454 0.555015 9.17812 0.461389 8.72347C0.366737 8.25772 0.318359 7.77992 0.318359 7.30146C0.318359 6.82263 0.36671 6.34381 0.461416 5.87909C0.555043 5.42441 0.693559 4.97733 0.874609 4.55129C1.05217 4.13181 1.27191 3.72751 1.52687 3.35078C1.77975 2.97615 2.07066 2.62563 2.39055 2.30514C2.71012 1.98637 3.0625 1.69697 3.43665 1.44376C3.81459 1.18811 4.2195 0.96908 4.6389 0.791056C5.06591 0.610599 5.51327 0.472283 5.96828 0.379842C6.43398 0.284636 6.91349 0.236328 7.39301 0.236328C7.87216 0.236328 8.35168 0.284636 8.81807 0.379842C9.27236 0.472311 9.71975 0.610626 10.1471 0.791056C10.5665 0.969052 10.9711 1.18811 11.349 1.44376C11.7232 1.69697 12.0756 1.98637 12.3958 2.30514C12.7154 2.62563 13.0063 2.97615 13.2588 3.35078C13.5151 3.72751 13.7345 4.13184 13.9114 4.55129C14.0924 4.97733 14.2306 5.42441 14.3239 5.87909C14.4195 6.34381 14.4682 6.82263 14.4682 7.30146ZM4.81502 1.84426C3.13013 2.63876 1.87261 4.18907 1.48049 6.05746C1.63977 6.05885 4.15759 6.09059 7.05852 5.32092C6.01279 3.46564 4.89552 1.95157 4.81502 1.84426ZM7.55911 6.24998C4.44813 7.18 1.46287 7.11309 1.35579 7.10897C1.35404 7.17381 1.35094 7.23658 1.35094 7.30145C1.35094 8.8514 1.93652 10.2644 2.89901 11.3328C2.89693 11.3297 4.5504 8.40054 7.81097 7.34769C7.88972 7.32147 7.96989 7.29799 8.04934 7.27524C7.8977 6.93235 7.73218 6.58875 7.55911 6.24998ZM11.3832 2.77329C10.3195 1.83666 8.92272 1.26852 7.39296 1.26852C6.90204 1.26852 6.42562 1.32786 5.96926 1.43756C6.05976 1.559 7.19466 3.06239 8.22796 4.95697C10.5078 4.10352 11.3683 2.79536 11.3832 2.77329ZM8.46119 8.27497C8.44773 8.27943 8.43428 8.28327 8.42112 8.28808C4.85624 9.52906 3.69207 12.03 3.67948 12.0573C4.70521 12.8538 5.99176 13.3344 7.393 13.3344C8.22972 13.3344 9.02672 13.1643 9.75186 12.8563C9.66239 12.3291 9.31139 10.4814 8.46119 8.27497ZM10.7693 12.305C12.1259 11.3908 13.0895 9.93916 13.3582 8.25769C13.2339 8.21768 11.5435 7.6833 9.59325 7.99552C10.3858 10.1703 10.7078 11.9414 10.7693 12.305ZM8.69302 5.85599C8.83325 6.14371 8.96905 6.43655 9.09444 6.73085C9.13902 6.83643 9.18256 6.93993 9.22504 7.0434C11.3006 6.78259 13.3455 7.2214 13.4329 7.23932C13.4191 5.80907 12.9067 4.49643 12.059 3.46876C12.0476 3.48494 11.0785 4.88314 8.69302 5.85599Z" fill="white"/>
</svg>
