<svg width="15" height="15" viewBox="0 0 15 15" fill="none" xmlns="http://www.w3.org/2000/svg">
<path fill-rule="evenodd" clip-rule="evenodd" d="M7.17558 0.236328C5.25412 0.236328 5.01298 0.24473 4.25831 0.279073C3.50512 0.313564 2.991 0.432807 2.54115 0.607766C2.07582 0.788474 1.68109 1.0302 1.28784 1.4236C0.894293 1.81686 0.652564 2.21158 0.471266 2.67676C0.295865 3.12677 0.176474 3.64103 0.142573 4.39393C0.108819 5.1486 0.0999756 5.38988 0.0999756 7.31134C0.0999756 9.2328 0.108525 9.4732 0.14272 10.2279C0.177359 10.9811 0.296602 11.4952 0.471414 11.945C0.652269 12.4104 0.893999 12.8051 1.2874 13.1983C1.6805 13.5919 2.07523 13.8342 2.54027 14.0149C2.99041 14.1899 3.50468 14.3091 4.25772 14.3436C5.01239 14.378 5.25339 14.3864 7.17469 14.3864C9.0963 14.3864 9.3367 14.378 10.0914 14.3436C10.8446 14.3091 11.3593 14.1899 11.8094 14.0149C12.2746 13.8342 12.6687 13.5919 13.0618 13.1983C13.4554 12.8051 13.6971 12.4104 13.8784 11.9452C14.0523 11.4952 14.1717 10.9809 14.2071 10.228C14.241 9.47335 14.2499 9.2328 14.2499 7.31134C14.2499 5.38988 14.241 5.14874 14.2071 4.39408C14.1717 3.64088 14.0523 3.12677 13.8784 2.67691C13.6971 2.21158 13.4554 1.81686 13.0618 1.4236C12.6683 1.03006 12.2747 0.788326 11.809 0.607766C11.3579 0.432807 10.8435 0.313564 10.0903 0.279073C9.33567 0.24473 9.09541 0.236328 7.17337 0.236328H7.17558ZM6.54086 1.51128C6.72923 1.51099 6.93942 1.51128 7.17555 1.51128C9.06458 1.51128 9.28847 1.51806 10.0344 1.55197C10.7243 1.58351 11.0986 1.69877 11.348 1.79561C11.6782 1.92385 11.9136 2.07714 12.1611 2.32476C12.4087 2.57239 12.562 2.80822 12.6905 3.13839C12.7874 3.38749 12.9028 3.76188 12.9342 4.45169C12.9681 5.19751 12.9754 5.42156 12.9754 7.3097C12.9754 9.19784 12.9681 9.42189 12.9342 10.1677C12.9026 10.8575 12.7874 11.2319 12.6905 11.481C12.5623 11.8112 12.4087 12.0463 12.1611 12.2938C11.9134 12.5414 11.6784 12.6947 11.348 12.8229C11.0989 12.9202 10.7243 13.0352 10.0344 13.0667C9.28862 13.1006 9.06458 13.108 7.17555 13.108C5.28637 13.108 5.06248 13.1006 4.31665 13.0667C3.62684 13.0349 3.25245 12.9196 3.00291 12.8228C2.67274 12.6945 2.43691 12.5412 2.18929 12.2936C1.94166 12.046 1.78837 11.8107 1.65984 11.4804C1.563 11.2313 1.44759 10.8569 1.41619 10.1671C1.38229 9.4213 1.37551 9.19725 1.37551 7.30793C1.37551 5.41861 1.38229 5.19574 1.41619 4.44992C1.44774 3.76011 1.563 3.38572 1.65984 3.13633C1.78807 2.80616 1.94166 2.57033 2.18929 2.3227C2.43691 2.07507 2.67274 1.92178 3.00291 1.79325C3.25231 1.69597 3.62684 1.581 4.31665 1.54931C4.96932 1.51983 5.22225 1.51099 6.54086 1.50952V1.51128ZM10.9521 2.68603C10.4834 2.68603 10.1031 3.06587 10.1031 3.53474C10.1031 4.00346 10.4834 4.38374 10.9521 4.38374C11.4209 4.38374 11.8011 4.00346 11.8011 3.53474C11.8011 3.06602 11.4209 2.68603 10.9521 2.68603ZM7.17559 3.67801C5.16909 3.67801 3.54228 5.30482 3.54228 7.31132C3.54228 9.31782 5.16909 10.9439 7.17559 10.9439C9.18209 10.9439 10.8083 9.31782 10.8083 7.31132C10.8083 5.30482 9.18209 3.67801 7.17559 3.67801ZM7.17556 4.95298C8.47796 4.95298 9.5339 6.00878 9.5339 7.31132C9.5339 8.61371 8.47796 9.66966 7.17556 9.66966C5.87302 9.66966 4.81723 8.61371 4.81723 7.31132C4.81723 6.00878 5.87302 4.95298 7.17556 4.95298Z" fill="white"/>
</svg>
