<svg width="14" height="11" viewBox="0 0 14 11" fill="none" xmlns="http://www.w3.org/2000/svg">
<path fill-rule="evenodd" clip-rule="evenodd" d="M7.2144 2.85456L7.24223 3.31358L6.77829 3.25737C5.08952 3.04191 3.61416 2.31124 2.36151 1.08407L1.7491 0.475169L1.59135 0.924818C1.25731 1.92716 1.47073 2.98571 2.16665 3.69765C2.53781 4.0911 2.4543 4.1473 1.81405 3.91311C1.59135 3.83817 1.3965 3.78196 1.37794 3.81006C1.31299 3.87564 1.53568 4.7281 1.71198 5.06533C1.95323 5.53372 2.44502 5.99274 2.9832 6.2644L3.43786 6.47986L2.89969 6.48922C2.38006 6.48922 2.36151 6.49859 2.41718 6.69531C2.60276 7.30421 3.3358 7.95058 4.15234 8.23161L4.72764 8.42833L4.22658 8.7281C3.48426 9.15901 2.61204 9.40257 1.73982 9.42131C1.32226 9.43068 0.978943 9.46815 0.978943 9.49625C0.978943 9.58993 2.11097 10.1145 2.76978 10.3206C4.7462 10.9295 7.09377 10.6672 8.85677 9.6274C10.1094 8.88735 11.3621 7.41662 11.9467 5.99274C12.2621 5.23395 12.5776 3.84754 12.5776 3.18243C12.5776 2.75152 12.6055 2.69531 13.1251 2.18009C13.4313 1.88032 13.7189 1.55245 13.7746 1.45878C13.8674 1.28079 13.8581 1.28079 13.3849 1.44004C12.5962 1.72107 12.4848 1.6836 12.8746 1.26205C13.1622 0.962289 13.5055 0.418963 13.5055 0.259712C13.5055 0.231609 13.3663 0.278447 13.2086 0.362757C13.0416 0.456433 12.6704 0.596949 12.3921 0.681258L11.891 0.840509L11.4363 0.531375C11.1858 0.362757 10.8332 0.175403 10.6476 0.119197C10.1744 -0.0119508 9.45062 0.00678453 9.02379 0.156668C7.86392 0.578213 7.13089 1.66486 7.2144 2.85456Z" fill="white"/>
</svg>
