<svg width="15" height="11" viewBox="0 0 15 11" fill="none" xmlns="http://www.w3.org/2000/svg">
<path fill-rule="evenodd" clip-rule="evenodd" d="M13.3582 0.750896C13.9671 0.917967 14.4466 1.41024 14.6093 2.03538C14.905 3.16837 14.905 5.53238 14.905 5.53238C14.905 5.53238 14.905 7.8963 14.6093 9.02938C14.4466 9.65452 13.9671 10.1468 13.3582 10.3139C12.2549 10.6175 7.83007 10.6175 7.83007 10.6175C7.83007 10.6175 3.40525 10.6175 2.30181 10.3139C1.69296 10.1468 1.21347 9.65452 1.05075 9.02938C0.755127 7.8963 0.755127 5.53238 0.755127 5.53238C0.755127 5.53238 0.755127 3.16837 1.05075 2.03538C1.21347 1.41024 1.69296 0.917967 2.30181 0.750896C3.40525 0.447266 7.83007 0.447266 7.83007 0.447266C7.83007 0.447266 12.2549 0.447266 13.3582 0.750896ZM6.50353 3.5425V7.96434L10.041 5.75351L6.50353 3.5425Z" fill="white"/>
</svg>
